<svg width="64" height="42" viewBox="0 0 64 42" fill="none" xmlns="http://www.w3.org/2000/svg">
<path fill-rule="evenodd" clip-rule="evenodd" d="M16.653 14.0594C7.3028 19.3973 1 29.4627 1 41.0001C1 41.3347 1.0053 41.6681 1.01582 42.0001H62.9842C62.9947 41.6681 63 41.3347 63 41.0001C63 29.4627 56.6972 19.3973 47.347 14.0594L52.2 5.6537C52.7523 4.6971 52.4245 3.4739 51.4679 2.9216C50.5114 2.3694 49.2882 2.6971 48.7359 3.6537L43.7431 12.3015C40.1212 10.818 36.1561 10.0001 32 10.0001C27.8439 10.0001 23.8788 10.818 20.257 12.3015L15.2641 3.6537C14.7118 2.6971 13.4886 2.3693 12.5321 2.9216C11.5755 3.4739 11.2477 4.6971 11.8 5.6537L16.653 14.0594Z" fill="#B1CC33"/>
<path d="M18.5 31C19.8807 31 21 29.8807 21 28.5C21 27.1193 19.8807 26 18.5 26C17.1193 26 16 27.1193 16 28.5C16 29.8807 17.1193 31 18.5 31Z" fill="white"/>
<path d="M45.5 31C46.8807 31 48 29.8807 48 28.5C48 27.1193 46.8807 26 45.5 26C44.1193 26 43 27.1193 43 28.5C43 29.8807 44.1193 31 45.5 31Z" fill="white"/>
</svg>
