<svg width="59" height="59" viewBox="0 0 59 59" fill="none" xmlns="http://www.w3.org/2000/svg">
<rect width="59" height="59" fill="white"/>
<path d="M0 0V59H59V0H0ZM57 57H2V2H57V57Z" fill="black"/>
<path d="M20.9999 44.9998C21.2559 44.9998 21.5119 44.9018 21.7069 44.7068C22.0979 44.3158 22.0979 43.6838 21.7069 43.2928L8.41394 29.9998L21.7069 16.7068C22.0979 16.3158 22.0979 15.6838 21.7069 15.2928C21.3159 14.9018 20.6839 14.9018 20.2929 15.2928L5.58594 29.9998L20.2929 44.7068C20.4879 44.9018 20.7439 44.9998 20.9999 44.9998Z" fill="black"/>
<path d="M37.293 44.7068C37.488 44.9018 37.744 44.9998 38 44.9998C38.256 44.9998 38.512 44.9018 38.707 44.7068L53.414 29.9998L38.707 15.2928C38.316 14.9018 37.684 14.9018 37.293 15.2928C36.902 15.6838 36.902 16.3158 37.293 16.7068L50.586 29.9998L37.293 43.2928C36.902 43.6838 36.902 44.3158 37.293 44.7068Z" fill="black"/>
<path d="M24.7849 50.9768C24.8569 50.9918 24.9299 50.9998 25.0009 50.9998C25.4599 50.9998 25.8739 50.6818 25.9769 50.2148L34.9769 9.21483C35.0949 8.67483 34.7539 8.14183 34.2149 8.02383C33.6779 7.90583 33.1419 8.24683 33.0239 8.78583L24.0239 49.7858C23.9049 50.3248 24.2459 50.8578 24.7849 50.9768Z" fill="black"/>
</svg>
